<svg id="Group_384" data-name="Group 384" xmlns="http://www.w3.org/2000/svg" width="40.88" height="41.666" viewBox="0 0 40.88 41.666">
  <path id="Path_235" data-name="Path 235" d="M.481.338V-6.018A4.689,4.689,0,0,0-4.2-10.7h-6.354a4.689,4.689,0,0,0-4.684,4.683V.338a4.69,4.69,0,0,0,4.684,4.684H-4.2A4.69,4.69,0,0,0,.481.338M-1.1.338a3.1,3.1,0,0,1-3.1,3.1h-6.354a3.1,3.1,0,0,1-3.1-3.1V-6.018a3.1,3.1,0,0,1,3.1-3.1H-4.2a3.1,3.1,0,0,1,3.1,3.1ZM-2.332-6.876a.974.974,0,0,0-.974-.974.974.974,0,0,0-.975.974.975.975,0,0,0,.975.975.974.974,0,0,0,.974-.975m-.982,4.036A4.071,4.071,0,0,0-7.38-6.906a4.071,4.071,0,0,0-4.066,4.066A4.071,4.071,0,0,0-7.38,1.227,4.071,4.071,0,0,0-3.314-2.839m-1.581,0A2.485,2.485,0,0,1-7.38-.355,2.485,2.485,0,0,1-9.866-2.839,2.485,2.485,0,0,1-7.38-5.325,2.485,2.485,0,0,1-4.9-2.839" transform="translate(27.82 24.066)" fill="#9da7bd"/>
  <g id="Rectangle_65" data-name="Rectangle 65" transform="translate(0)" fill="none" stroke="#9da7bd" stroke-width="1">
    <rect width="40.88" height="41.666" stroke="none"/>
    <rect x="0.5" y="0.5" width="39.88" height="40.666" fill="none"/>
  </g>
</svg>
