<svg id="Social_Twitter" data-name="Social Twitter" xmlns="http://www.w3.org/2000/svg" width="40.88" height="41.666" viewBox="0 0 40.88 41.666">
  <path id="Path_237" data-name="Path 237" d="M2.222.214A6.735,6.735,0,0,1,.284.744,3.375,3.375,0,0,0,1.768-1.122,6.8,6.8,0,0,1-.375-.3,3.373,3.373,0,0,0-2.839-1.368,3.374,3.374,0,0,0-6.213,2.006a3.315,3.315,0,0,0,.088.769A9.584,9.584,0,0,1-13.081-.752a3.351,3.351,0,0,0-.457,1.7,3.37,3.37,0,0,0,1.5,2.808,3.357,3.357,0,0,1-1.529-.422v.042a3.377,3.377,0,0,0,2.707,3.309,3.354,3.354,0,0,1-.889.119,3.488,3.488,0,0,1-.636-.061A3.379,3.379,0,0,0-9.232,9.083a6.773,6.773,0,0,1-4.191,1.444,7.127,7.127,0,0,1-.8-.046A9.564,9.564,0,0,0-9.055,12a9.536,9.536,0,0,0,9.6-9.6q0-.22-.01-.437A6.794,6.794,0,0,0,2.219.211Z" transform="translate(26.806 15.519)" fill="#9da7bd"/>
  <g id="Rectangle_64" data-name="Rectangle 64" transform="translate(0)" fill="none" stroke="#9da7bd" stroke-width="1">
    <rect width="40.88" height="41.666" stroke="none"/>
    <rect x="0.5" y="0.5" width="39.88" height="40.666" fill="none"/>
  </g>
</svg>
